<mxfile host="app.diagrams.net" modified="2021-02-25T00:24:29.650Z" agent="5.0 (Windows)" etag="MirPQnWpAar5nlY9yb9_" version="14.4.3" type="github">
  <diagram id="C5RBs43oDa-KdzZeNtuy" name="Page-1">
    <mxGraphModel dx="1004" dy="1085" grid="1" gridSize="10" guides="1" tooltips="1" connect="1" arrows="1" fold="1" page="1" pageScale="1" pageWidth="827" pageHeight="1169" math="0" shadow="0">
      <root>
        <mxCell id="WIyWlLk6GJQsqaUBKTNV-0" />
        <mxCell id="WIyWlLk6GJQsqaUBKTNV-1" parent="WIyWlLk6GJQsqaUBKTNV-0" />
        <mxCell id="WIyWlLk6GJQsqaUBKTNV-2" value="" style="rounded=0;html=1;jettySize=auto;orthogonalLoop=1;fontSize=11;endArrow=block;endFill=0;endSize=8;strokeWidth=1;shadow=0;labelBackgroundColor=none;edgeStyle=orthogonalEdgeStyle;entryX=0.5;entryY=0;entryDx=0;entryDy=0;" parent="WIyWlLk6GJQsqaUBKTNV-1" source="WIyWlLk6GJQsqaUBKTNV-3" target="EyvZQVJiaUZ-3F45-QHg-15" edge="1">
          <mxGeometry relative="1" as="geometry">
            <mxPoint x="414" y="160" as="targetPoint" />
          </mxGeometry>
        </mxCell>
        <mxCell id="WIyWlLk6GJQsqaUBKTNV-3" value="Start Program." style="rounded=1;whiteSpace=wrap;html=1;fontSize=12;glass=0;strokeWidth=1;shadow=0;" parent="WIyWlLk6GJQsqaUBKTNV-1" vertex="1">
          <mxGeometry x="354" y="40" width="126" height="50" as="geometry" />
        </mxCell>
        <mxCell id="EyvZQVJiaUZ-3F45-QHg-2" style="edgeStyle=orthogonalEdgeStyle;rounded=0;orthogonalLoop=1;jettySize=auto;html=1;entryX=0.5;entryY=0;entryDx=0;entryDy=0;" edge="1" parent="WIyWlLk6GJQsqaUBKTNV-1">
          <mxGeometry relative="1" as="geometry">
            <mxPoint x="200" y="270" as="sourcePoint" />
            <mxPoint x="200" y="270" as="targetPoint" />
          </mxGeometry>
        </mxCell>
        <mxCell id="EyvZQVJiaUZ-3F45-QHg-16" style="edgeStyle=orthogonalEdgeStyle;rounded=0;orthogonalLoop=1;jettySize=auto;html=1;entryX=0.5;entryY=0;entryDx=0;entryDy=0;" edge="1" parent="WIyWlLk6GJQsqaUBKTNV-1" source="EyvZQVJiaUZ-3F45-QHg-15" target="EyvZQVJiaUZ-3F45-QHg-17">
          <mxGeometry relative="1" as="geometry">
            <mxPoint x="414" y="230" as="targetPoint" />
          </mxGeometry>
        </mxCell>
        <mxCell id="EyvZQVJiaUZ-3F45-QHg-15" value="Generate a random word. " style="rounded=1;whiteSpace=wrap;html=1;" vertex="1" parent="WIyWlLk6GJQsqaUBKTNV-1">
          <mxGeometry x="354" y="120" width="126" height="40" as="geometry" />
        </mxCell>
        <mxCell id="EyvZQVJiaUZ-3F45-QHg-19" style="edgeStyle=orthogonalEdgeStyle;rounded=0;orthogonalLoop=1;jettySize=auto;html=1;" edge="1" parent="WIyWlLk6GJQsqaUBKTNV-1" source="EyvZQVJiaUZ-3F45-QHg-17" target="EyvZQVJiaUZ-3F45-QHg-18">
          <mxGeometry relative="1" as="geometry" />
        </mxCell>
        <mxCell id="EyvZQVJiaUZ-3F45-QHg-17" value="Generate blanks for the random word. " style="rounded=1;whiteSpace=wrap;html=1;" vertex="1" parent="WIyWlLk6GJQsqaUBKTNV-1">
          <mxGeometry x="355" y="200" width="124" height="50" as="geometry" />
        </mxCell>
        <mxCell id="EyvZQVJiaUZ-3F45-QHg-22" style="edgeStyle=orthogonalEdgeStyle;rounded=0;orthogonalLoop=1;jettySize=auto;html=1;entryX=0.5;entryY=0;entryDx=0;entryDy=0;" edge="1" parent="WIyWlLk6GJQsqaUBKTNV-1" source="EyvZQVJiaUZ-3F45-QHg-18" target="EyvZQVJiaUZ-3F45-QHg-45">
          <mxGeometry relative="1" as="geometry">
            <mxPoint x="420" y="387.5" as="targetPoint" />
            <Array as="points" />
          </mxGeometry>
        </mxCell>
        <mxCell id="EyvZQVJiaUZ-3F45-QHg-18" value="Ask User&amp;nbsp; to guess a letter. " style="rounded=1;whiteSpace=wrap;html=1;" vertex="1" parent="WIyWlLk6GJQsqaUBKTNV-1">
          <mxGeometry x="357" y="290" width="120" height="60" as="geometry" />
        </mxCell>
        <mxCell id="EyvZQVJiaUZ-3F45-QHg-41" style="edgeStyle=orthogonalEdgeStyle;rounded=0;orthogonalLoop=1;jettySize=auto;html=1;exitX=0.5;exitY=1;exitDx=0;exitDy=0;" edge="1" parent="WIyWlLk6GJQsqaUBKTNV-1" source="EyvZQVJiaUZ-3F45-QHg-21" target="EyvZQVJiaUZ-3F45-QHg-36">
          <mxGeometry relative="1" as="geometry" />
        </mxCell>
        <mxCell id="EyvZQVJiaUZ-3F45-QHg-21" value="Lose a life." style="rounded=1;whiteSpace=wrap;html=1;" vertex="1" parent="WIyWlLk6GJQsqaUBKTNV-1">
          <mxGeometry x="520" y="428.75" width="130" height="50" as="geometry" />
        </mxCell>
        <mxCell id="EyvZQVJiaUZ-3F45-QHg-24" value="Yes" style="text;html=1;strokeColor=none;fillColor=none;align=center;verticalAlign=middle;whiteSpace=wrap;rounded=0;" vertex="1" parent="WIyWlLk6GJQsqaUBKTNV-1">
          <mxGeometry x="180" y="390" width="40" height="20" as="geometry" />
        </mxCell>
        <mxCell id="EyvZQVJiaUZ-3F45-QHg-31" style="edgeStyle=orthogonalEdgeStyle;rounded=0;orthogonalLoop=1;jettySize=auto;html=1;" edge="1" parent="WIyWlLk6GJQsqaUBKTNV-1" target="EyvZQVJiaUZ-3F45-QHg-30">
          <mxGeometry relative="1" as="geometry">
            <mxPoint x="360.04528301886785" y="453.79999999999995" as="sourcePoint" />
          </mxGeometry>
        </mxCell>
        <mxCell id="EyvZQVJiaUZ-3F45-QHg-43" style="edgeStyle=orthogonalEdgeStyle;rounded=0;orthogonalLoop=1;jettySize=auto;html=1;exitX=1;exitY=0.5;exitDx=0;exitDy=0;entryX=0;entryY=0.5;entryDx=0;entryDy=0;" edge="1" parent="WIyWlLk6GJQsqaUBKTNV-1" target="EyvZQVJiaUZ-3F45-QHg-21">
          <mxGeometry relative="1" as="geometry">
            <mxPoint x="500" y="458" as="targetPoint" />
            <mxPoint x="480" y="453.75" as="sourcePoint" />
          </mxGeometry>
        </mxCell>
        <mxCell id="EyvZQVJiaUZ-3F45-QHg-38" style="edgeStyle=orthogonalEdgeStyle;rounded=0;orthogonalLoop=1;jettySize=auto;html=1;entryX=0.5;entryY=0;entryDx=0;entryDy=0;" edge="1" parent="WIyWlLk6GJQsqaUBKTNV-1" source="EyvZQVJiaUZ-3F45-QHg-30" target="EyvZQVJiaUZ-3F45-QHg-35">
          <mxGeometry relative="1" as="geometry" />
        </mxCell>
        <mxCell id="EyvZQVJiaUZ-3F45-QHg-30" value="Replace blank with the letter" style="rounded=1;whiteSpace=wrap;html=1;" vertex="1" parent="WIyWlLk6GJQsqaUBKTNV-1">
          <mxGeometry x="190" y="430" width="130" height="47.5" as="geometry" />
        </mxCell>
        <mxCell id="EyvZQVJiaUZ-3F45-QHg-34" value="No" style="text;html=1;strokeColor=none;fillColor=none;align=center;verticalAlign=middle;whiteSpace=wrap;rounded=0;" vertex="1" parent="WIyWlLk6GJQsqaUBKTNV-1">
          <mxGeometry x="590" y="400" width="40" height="20" as="geometry" />
        </mxCell>
        <mxCell id="EyvZQVJiaUZ-3F45-QHg-42" style="edgeStyle=orthogonalEdgeStyle;rounded=0;orthogonalLoop=1;jettySize=auto;html=1;entryX=0;entryY=0.5;entryDx=0;entryDy=0;" edge="1" parent="WIyWlLk6GJQsqaUBKTNV-1" source="EyvZQVJiaUZ-3F45-QHg-35" target="EyvZQVJiaUZ-3F45-QHg-18">
          <mxGeometry relative="1" as="geometry">
            <Array as="points">
              <mxPoint x="120" y="570" />
              <mxPoint x="120" y="320" />
            </Array>
          </mxGeometry>
        </mxCell>
        <mxCell id="EyvZQVJiaUZ-3F45-QHg-53" style="edgeStyle=orthogonalEdgeStyle;rounded=0;orthogonalLoop=1;jettySize=auto;html=1;exitX=0.5;exitY=1;exitDx=0;exitDy=0;entryX=0;entryY=0.5;entryDx=0;entryDy=0;" edge="1" parent="WIyWlLk6GJQsqaUBKTNV-1" source="EyvZQVJiaUZ-3F45-QHg-35" target="EyvZQVJiaUZ-3F45-QHg-37">
          <mxGeometry relative="1" as="geometry" />
        </mxCell>
        <mxCell id="EyvZQVJiaUZ-3F45-QHg-54" style="edgeStyle=orthogonalEdgeStyle;rounded=0;orthogonalLoop=1;jettySize=auto;html=1;exitX=0.5;exitY=1;exitDx=0;exitDy=0;" edge="1" parent="WIyWlLk6GJQsqaUBKTNV-1" source="EyvZQVJiaUZ-3F45-QHg-35">
          <mxGeometry relative="1" as="geometry">
            <mxPoint x="220" y="630" as="targetPoint" />
          </mxGeometry>
        </mxCell>
        <mxCell id="EyvZQVJiaUZ-3F45-QHg-35" value="Are all the blanks filled?" style="rounded=1;whiteSpace=wrap;html=1;" vertex="1" parent="WIyWlLk6GJQsqaUBKTNV-1">
          <mxGeometry x="150" y="570" width="120" height="60" as="geometry" />
        </mxCell>
        <mxCell id="EyvZQVJiaUZ-3F45-QHg-40" style="edgeStyle=orthogonalEdgeStyle;rounded=0;orthogonalLoop=1;jettySize=auto;html=1;exitX=0.5;exitY=1;exitDx=0;exitDy=0;entryX=1;entryY=0.5;entryDx=0;entryDy=0;" edge="1" parent="WIyWlLk6GJQsqaUBKTNV-1" source="EyvZQVJiaUZ-3F45-QHg-36" target="EyvZQVJiaUZ-3F45-QHg-37">
          <mxGeometry relative="1" as="geometry" />
        </mxCell>
        <mxCell id="EyvZQVJiaUZ-3F45-QHg-44" style="edgeStyle=orthogonalEdgeStyle;rounded=0;orthogonalLoop=1;jettySize=auto;html=1;entryX=1;entryY=0.5;entryDx=0;entryDy=0;" edge="1" parent="WIyWlLk6GJQsqaUBKTNV-1" source="EyvZQVJiaUZ-3F45-QHg-36" target="EyvZQVJiaUZ-3F45-QHg-18">
          <mxGeometry relative="1" as="geometry">
            <Array as="points">
              <mxPoint x="720" y="580" />
              <mxPoint x="720" y="320" />
            </Array>
          </mxGeometry>
        </mxCell>
        <mxCell id="EyvZQVJiaUZ-3F45-QHg-36" value="Run out of lives?" style="rounded=1;whiteSpace=wrap;html=1;" vertex="1" parent="WIyWlLk6GJQsqaUBKTNV-1">
          <mxGeometry x="525" y="555" width="120" height="60" as="geometry" />
        </mxCell>
        <mxCell id="EyvZQVJiaUZ-3F45-QHg-37" value="Game Over" style="rounded=1;whiteSpace=wrap;html=1;" vertex="1" parent="WIyWlLk6GJQsqaUBKTNV-1">
          <mxGeometry x="360" y="740" width="120" height="60" as="geometry" />
        </mxCell>
        <mxCell id="EyvZQVJiaUZ-3F45-QHg-45" value="Is the guess correct?" style="rounded=0;whiteSpace=wrap;html=1;" vertex="1" parent="WIyWlLk6GJQsqaUBKTNV-1">
          <mxGeometry x="356" y="400" width="123" height="70" as="geometry" />
        </mxCell>
        <mxCell id="EyvZQVJiaUZ-3F45-QHg-47" style="edgeStyle=orthogonalEdgeStyle;rounded=0;orthogonalLoop=1;jettySize=auto;html=1;exitX=0.25;exitY=0;exitDx=0;exitDy=0;entryX=0.083;entryY=0;entryDx=0;entryDy=0;entryPerimeter=0;" edge="1" parent="WIyWlLk6GJQsqaUBKTNV-1" source="EyvZQVJiaUZ-3F45-QHg-36" target="EyvZQVJiaUZ-3F45-QHg-36">
          <mxGeometry relative="1" as="geometry" />
        </mxCell>
        <mxCell id="EyvZQVJiaUZ-3F45-QHg-48" value="Yes" style="text;html=1;strokeColor=none;fillColor=none;align=center;verticalAlign=middle;whiteSpace=wrap;rounded=0;" vertex="1" parent="WIyWlLk6GJQsqaUBKTNV-1">
          <mxGeometry x="220" y="660" width="40" height="20" as="geometry" />
        </mxCell>
        <mxCell id="EyvZQVJiaUZ-3F45-QHg-49" value="Yes" style="text;html=1;strokeColor=none;fillColor=none;align=center;verticalAlign=middle;whiteSpace=wrap;rounded=0;" vertex="1" parent="WIyWlLk6GJQsqaUBKTNV-1">
          <mxGeometry x="540" y="660" width="40" height="20" as="geometry" />
        </mxCell>
        <mxCell id="EyvZQVJiaUZ-3F45-QHg-50" value="No" style="text;html=1;strokeColor=none;fillColor=none;align=center;verticalAlign=middle;whiteSpace=wrap;rounded=0;" vertex="1" parent="WIyWlLk6GJQsqaUBKTNV-1">
          <mxGeometry x="660" y="520" width="40" height="20" as="geometry" />
        </mxCell>
        <mxCell id="EyvZQVJiaUZ-3F45-QHg-51" value="No" style="text;html=1;strokeColor=none;fillColor=none;align=center;verticalAlign=middle;whiteSpace=wrap;rounded=0;" vertex="1" parent="WIyWlLk6GJQsqaUBKTNV-1">
          <mxGeometry x="140" y="520" width="40" height="20" as="geometry" />
        </mxCell>
      </root>
    </mxGraphModel>
  </diagram>
</mxfile>
